<svg xmlns="http://www.w3.org/2000/svg" width="130" height="130" viewBox="0 0 130 130"><defs><clipPath id="ee6ma"><path fill="#fff" d="M65 0c35.898 0 65 29.101 65 65 0 35.898-29.102 65-65 65C29.1 130 0 100.897 0 65 0 29.1 29.101 0 65 0z"/></clipPath><clipPath id="ee6mb"><path d="M65 0c35.898 0 65 29.101 65 65 0 35.898-29.102 65-65 65C29.1 130 0 100.897 0 65 0 29.1 29.101 0 65 0z"/></clipPath></defs><g><g><path fill="none" stroke="#e8e8e8" stroke-miterlimit="50" stroke-width="12" d="M65 0c35.898 0 65 29.101 65 65 0 35.898-29.102 65-65 65C29.1 130 0 100.897 0 65 0 29.1 29.101 0 65 0z" clip-path="url(&quot;#ee6ma&quot;)"/></g><g clip-path="url(#ee6mb)"><path fill="#32b228" d="M64-33.001l85 75s-3.668 62.131-42 84c-39.646 22.619-95-5-95-5l52-38z"/></g></g></svg>