<svg xmlns="http://www.w3.org/2000/svg" width="1796" height="1475" viewBox="0 0 1796 1475"><g><g><path fill="#de281f" d="M1250 543L176 359 1574 82.998z"/></g><g><path fill="#43a8f6" d="M244.764 369.88L98.083 421.152-.153 263.308z"/></g><g><path fill="#62c543" d="M1564.12 411.5l31.737 46.604-46.036 49.231z"/></g><g><path fill="#37bb0f" d="M141.936 220.318l-11.201 21.113-28.33-8.238z"/></g><g><path fill="#d60505" d="M906.452 605.964L895.25 627.08l-28.33-8.238z"/></g><g><path fill="#37bb0f" d="M1796.019 370.093l-11.202 21.115-28.33-8.238z"/></g><g><path fill="#37bb0f" d="M644.019 893.094l-11.202 21.114-28.33-8.238z"/></g><g><path fill="#37bb0f" d="M667.019 1170.094l-11.202 21.114-28.33-8.238z"/></g><g><path fill="#d60505" d="M1642.75 102.635l-11.202 21.113-28.33-8.238z"/></g><g><path fill="#d60505" d="M1342 129l-333 219-370-171z"/></g><g><path fill="#43a8f6" d="M338.428 212.49l-23.477-11.607 30.379-4.283z"/></g><g><path fill="#43a8f6" d="M565.428 1474.49l-23.477-11.608 30.379-4.282z"/></g><g><path fill="#43a8f6" d="M1646.428 914.49l-23.477-11.607 30.379-4.283z"/></g><g><path fill="#43a8f6" d="M253.428 996.49l-23.477-11.607 30.379-4.283z"/></g><g><path fill="#43a8f6" d="M1434.233 550.835l-23.477-11.606 30.379-4.284z"/></g><g><path fill="#43a8f6" d="M1413.233 1157.835l-23.477-11.606 30.379-4.283z"/></g><g><path fill="#43a8f6" d="M1342.379 634.581l-23.477-11.606 30.379-4.283z"/></g><g><path fill="#43a8f6" d="M618.379 775.581l-23.477-11.607 30.379-4.282z"/></g><g><path fill="#43a8f6" d="M1758.14 196.524l-23.477-11.606 30.379-4.283z"/></g><g><path fill="#43a8f6" d="M1704.962 16.148l-23.477-11.606 30.378-4.284z"/></g><g><path fill="#43a8f6" d="M625.839 99.736L602.362 88.13l30.378-4.283z"/></g><g><path fill="#43a8f6" d="M64.477 215.85L41 204.244l30.379-4.283z"/></g><g><path fill="#6eb640" d="M504.174 162.546l-23.476-11.607 30.378-4.283z"/></g><g><path fill="#43a8f6" d="M247.521 384.189l-17.397-45.597 46.844 31.61z"/></g><g><path fill="#43a8f6" d="M1327.432 169.234l-17.397-45.595 46.844 31.608z"/></g><g><path fill="#43a8f6" d="M480.85 326.331l-17.398-45.596 46.844 31.61z"/></g><g><path fill="#37bb0f" d="M1563.991 202l-40.65 101-133.34-57.087z"/></g><g><path fill="#d60505" d="M1744.825 594.24l23.118-13.975 18.783 30.601z"/></g><g><path fill="#d60505" d="M322.795 394.538l23.118-13.975 18.783 30.6z"/></g><g><path fill="#d60505" d="M1021.272 74.048l23.118-13.975 18.782 30.6z"/></g><g><path fill="#43a8f6" d="M1441.867 375.213l23.119-13.976 18.782 30.601z"/></g><g><path fill="#d60505" d="M1407.854 479.976l23.118-13.975 18.783 30.6z"/></g><g><path fill="#d60505" d="M1222.854 1376.976l23.118-13.974 18.783 30.6z"/></g><g><path fill="#d60505" d="M397.854 1275.976L420.972 1262l18.783 30.6z"/></g><g><path fill="#e0241b" d="M218.977 94.218l39.749-24.21 32.294 53.012z"/></g><g><path fill="#37bb0f" d="M1250.328 474.298l30.231-18.39 24.562 40.266z"/></g><g><path fill="#62c543" d="M1114.176 539.361l-142.723 40.66-86.141-157.843z"/></g></g></svg>