<svg xmlns="http://www.w3.org/2000/svg" width="800" height="155" viewBox="0 0 800 155"><defs><mask id="6a8kb" width="2" height="2" x="-1" y="-1"><path fill="#fff" d="M12 11h776v132H12z"/><path d="M11.988 23.677H24.02l9.802 15.848 9.802-15.848h12.033v40.937H44.329v-23.51L33.822 57.13h-.234L23.14 41.222v23.392H11.988zm65.156-.292H88.12l17.49 41.23H93.403l-2.993-7.311H74.56l-2.934 7.31H59.653zm9.978 25.088l-4.578-11.637-4.637 11.637zm18.728-4.328c0-11.93 9.215-21.286 21.658-21.286 8.394 0 13.618 3.626 17.257 8.655l-8.335 6.432c-2.348-2.923-5.106-4.736-9.039-4.736-5.752 0-9.802 4.853-9.802 10.935 0 6.141 4.05 10.937 9.802 10.937 4.285 0 6.809-1.988 9.274-4.97l8.57 6.08c-3.875 5.322-9.098 9.241-18.196 9.241-11.739 0-21.189-8.948-21.189-21.288zm44.26-20.468h11.387v30.996h11.68V23.677h11.387v30.996h11.68V23.677h11.387v40.937H150.11zm74.841 9.942h-12.326v-9.942h36.039v9.942h-12.326v30.995h-11.387zm37.626-10.234h10.976l17.491 41.23h-12.208l-2.994-7.311h-15.847l-2.935 7.31h-11.974zm9.978 25.088l-4.578-11.637-4.637 11.637zm22.485-24.796h33.045v9.65h-21.658v4.736h7.924c9.508 0 16.493 4.328 16.493 13.159 0 8.48-6.222 13.392-15.907 13.392H295.04V55h11.387v.083h7.63c3.404 0 5.4-1.52 5.4-4.328 0-2.515-1.996-4.152-5.341-4.152l-4.244-.112v-.092H295.04zm41.09 0h11.387V39h14.615V23.677h11.387v40.937h-11.387V49.058h-14.615v15.556H336.13zm43.262 20.468c0-11.754 9.508-21.286 22.186-21.286s22.07 9.415 22.07 21.286c0 11.755-9.51 21.288-22.187 21.288-12.678 0-22.07-9.416-22.07-21.288zm32.634 0c0-5.906-4.285-11.052-10.565-11.052-6.222 0-10.39 5.029-10.39 11.052 0 5.907 4.286 11.054 10.507 11.054 6.28 0 10.448-5.03 10.448-11.054zm17.554-20.468h11.27V46.72l15.906-23.042h10.623v40.937h-11.27V41.572l-15.905 23.042H429.58zm8.922-11.579l6.221-1.112c.763 2.106 1.937 3.51 4.109 3.51 2.23 0 3.404-1.404 4.167-3.51l6.222 1.112c-.88 5.673-4.696 8.947-10.39 8.947-5.634 0-9.449-3.274-10.33-8.947zm51.01 32.047c0-11.754 9.509-21.286 22.187-21.286s22.069 9.415 22.069 21.286c0 11.755-9.509 21.288-22.187 21.288s-22.069-9.416-22.069-21.288zm32.634 0c0-5.906-4.284-11.052-10.565-11.052-6.221 0-10.388 5.029-10.388 11.052 0 5.907 4.284 11.054 10.506 11.054 6.28 0 10.447-5.03 10.447-11.054zm16.146 0c0-11.93 9.215-21.286 21.658-21.286 8.393 0 13.617 3.626 17.256 8.655l-8.334 6.432c-2.348-2.923-5.107-4.736-9.04-4.736-5.751 0-9.801 4.853-9.801 10.935 0 6.141 4.05 10.937 9.802 10.937 4.285 0 6.808-1.988 9.274-4.97l8.569 6.08c-3.874 5.322-9.098 9.241-18.195 9.241-11.74 0-21.189-8.948-21.189-21.288zm44.26-20.468h33.045v9.65H593.82v6.198h19.721v8.948h-19.721v6.491h22.07v9.65h-33.34zm39.152 0h11.387V39h14.615V23.677h11.387v40.937h-11.387V49.058h-14.615v15.556h-11.387zm44.67 0h11.387V39h14.615V23.677h11.387v40.937h-11.387V49.058h-14.615v15.556h-11.386zm44.67 0h33.046v9.65h-21.776v6.198h19.722v8.948h-19.722v6.491h22.07v9.65h-33.34zm39.154 0h11.269V46.72l15.906-23.042h10.624v40.937h-11.27V41.572l-15.906 23.042h-10.623zm8.921-11.579l6.222-1.112c.763 2.106 1.937 3.51 4.108 3.51 2.23 0 3.405-1.404 4.168-3.51l6.221 1.112c-.88 5.673-4.695 8.947-10.389 8.947-5.634 0-9.45-3.274-10.33-8.947zM176.112 93.862h17.608c10.39 0 17.08 5.322 17.08 14.504 0 9.65-7.454 14.737-17.667 14.737H187.5V134.8h-11.387v-20.457h12.92v-.13h3.867c4.05 0 6.515-2.104 6.515-5.438 0-3.509-2.465-5.38-6.574-5.38h-3.809v-.24h-12.919zm49.6-.292h10.976l17.491 41.23h-12.208l-2.994-7.311H223.13l-2.935 7.31h-11.974zm9.978 25.089l-4.578-11.639-4.637 11.639zm18.729-4.329c0-11.93 9.215-21.287 21.658-21.287 8.393 0 13.617 3.627 17.256 8.656l-8.335 6.433c-2.347-2.924-5.106-4.738-9.038-4.738-5.753 0-9.803 4.855-9.803 10.936 0 6.142 4.05 10.937 9.803 10.937 4.284 0 6.808-1.989 9.273-4.97l8.57 6.081c-3.874 5.321-9.098 9.24-18.196 9.24-11.739 0-21.188-8.948-21.188-21.288zm44.26-20.468h36.8V134.8h-11.386v-30.996h-14.028V134.8h-11.387zm44.083 0h17.608c10.39 0 17.08 5.322 17.08 14.504 0 9.65-7.454 14.737-17.667 14.737h-5.634V134.8h-11.387v-20.457h12.863v-.13h3.923c4.05 0 6.516-2.104 6.516-5.438 0-3.509-2.466-5.38-6.574-5.38h-3.865v-.24h-12.863zm38.096 20.468c0-11.754 9.508-21.287 22.186-21.287s22.07 9.416 22.07 21.287c0 11.755-9.509 21.288-22.187 21.288s-22.07-9.416-22.07-21.288zm32.634 0c0-5.906-4.285-11.053-10.565-11.053-6.222 0-10.389 5.03-10.389 11.053 0 5.907 4.285 11.054 10.506 11.054 6.28 0 10.448-5.03 10.448-11.054zm13.329 10.527h3.639c2.758-7.427 4.167-14.561 4.167-29.942v-1.053h31.284v30.995h4.637l-1.291 18.13h-9.626V134.8h-21.834l-.763 8.186H426.82zm27.704 0v-21.053h-8.922v.409c0 9.065-1.35 15.03-3.228 20.644zm34.75-31.287h10.976l17.491 41.23h-12.208l-2.993-7.311h-15.848l-2.935 7.31h-11.973zm9.979 25.089l-4.579-11.639-4.636 11.639zm33.636-7.545l-14.615-17.252H531.6l12.971 16.609V93.86h11.387v16.61l12.972-16.61h13.323l-14.615 17.253 15.144 23.686h-13.5l-9.391-15.44-3.933 4.562v10.877H544.57v-10.877l-3.932-4.562-9.391 15.44h-13.5zm53.183-17.252h11.27v23.041l15.906-23.041h10.624V134.8h-11.27v-23.043L596.697 134.8h-10.624z"/></mask><filter id="6a8ka" width="826" height="182" x="-13" y="-14" filterUnits="userSpaceOnUse"><feOffset in="SourceGraphic" result="FeOffset1104Out"/><feGaussianBlur in="FeOffset1104Out" result="FeGaussianBlur1105Out" stdDeviation="6 6"/></filter></defs><g><g><g filter="url(#6a8ka)"><path fill="none" d="M11.988 23.677H24.02l9.802 15.848 9.802-15.848h12.033v40.937H44.329v-23.51L33.822 57.13h-.234L23.14 41.222v23.392H11.988zm65.156-.292H88.12l17.49 41.23H93.403l-2.993-7.311H74.56l-2.934 7.31H59.653zm9.978 25.088l-4.578-11.637-4.637 11.637zm18.728-4.328c0-11.93 9.215-21.286 21.658-21.286 8.394 0 13.618 3.626 17.257 8.655l-8.335 6.432c-2.348-2.923-5.106-4.736-9.039-4.736-5.752 0-9.802 4.853-9.802 10.935 0 6.141 4.05 10.937 9.802 10.937 4.285 0 6.809-1.988 9.274-4.97l8.57 6.08c-3.875 5.322-9.098 9.241-18.196 9.241-11.739 0-21.189-8.948-21.189-21.288zm44.26-20.468h11.387v30.996h11.68V23.677h11.387v30.996h11.68V23.677h11.387v40.937H150.11zm74.841 9.942h-12.326v-9.942h36.039v9.942h-12.326v30.995h-11.387zm37.626-10.234h10.976l17.491 41.23h-12.208l-2.994-7.311h-15.847l-2.935 7.31h-11.974zm9.978 25.088l-4.578-11.637-4.637 11.637zm22.485-24.796h33.045v9.65h-21.658v4.736h7.924c9.508 0 16.493 4.328 16.493 13.159 0 8.48-6.222 13.392-15.907 13.392H295.04V55h11.387v.083h7.63c3.404 0 5.4-1.52 5.4-4.328 0-2.515-1.996-4.152-5.341-4.152l-4.244-.112v-.092H295.04zm41.09 0h11.387V39h14.615V23.677h11.387v40.937h-11.387V49.058h-14.615v15.556H336.13zm43.262 20.468c0-11.754 9.508-21.286 22.186-21.286s22.07 9.415 22.07 21.286c0 11.755-9.51 21.288-22.187 21.288-12.678 0-22.07-9.416-22.07-21.288zm32.634 0c0-5.906-4.285-11.052-10.565-11.052-6.222 0-10.39 5.029-10.39 11.052 0 5.907 4.286 11.054 10.507 11.054 6.28 0 10.448-5.03 10.448-11.054zm17.554-20.468h11.27V46.72l15.906-23.042h10.623v40.937h-11.27V41.572l-15.905 23.042H429.58zm8.922-11.579l6.221-1.112c.763 2.106 1.937 3.51 4.109 3.51 2.23 0 3.404-1.404 4.167-3.51l6.222 1.112c-.88 5.673-4.696 8.947-10.39 8.947-5.634 0-9.449-3.274-10.33-8.947zm51.01 32.047c0-11.754 9.509-21.286 22.187-21.286s22.069 9.415 22.069 21.286c0 11.755-9.509 21.288-22.187 21.288s-22.069-9.416-22.069-21.288zm32.634 0c0-5.906-4.284-11.052-10.565-11.052-6.221 0-10.388 5.029-10.388 11.052 0 5.907 4.284 11.054 10.506 11.054 6.28 0 10.447-5.03 10.447-11.054zm16.146 0c0-11.93 9.215-21.286 21.658-21.286 8.393 0 13.617 3.626 17.256 8.655l-8.334 6.432c-2.348-2.923-5.107-4.736-9.04-4.736-5.751 0-9.801 4.853-9.801 10.935 0 6.141 4.05 10.937 9.802 10.937 4.285 0 6.808-1.988 9.274-4.97l8.569 6.08c-3.874 5.322-9.098 9.241-18.195 9.241-11.74 0-21.189-8.948-21.189-21.288zm44.26-20.468h33.045v9.65H593.82v6.198h19.721v8.948h-19.721v6.491h22.07v9.65h-33.34zm39.152 0h11.387V39h14.615V23.677h11.387v40.937h-11.387V49.058h-14.615v15.556h-11.387zm44.67 0h11.387V39h14.615V23.677h11.387v40.937h-11.387V49.058h-14.615v15.556h-11.386zm44.67 0h33.046v9.65h-21.776v6.198h19.722v8.948h-19.722v6.491h22.07v9.65h-33.34zm39.154 0h11.269V46.72l15.906-23.042h10.624v40.937h-11.27V41.572l-15.906 23.042h-10.623zm8.921-11.579l6.222-1.112c.763 2.106 1.937 3.51 4.108 3.51 2.23 0 3.405-1.404 4.168-3.51l6.221 1.112c-.88 5.673-4.695 8.947-10.389 8.947-5.634 0-9.45-3.274-10.33-8.947zM176.112 93.862h17.608c10.39 0 17.08 5.322 17.08 14.504 0 9.65-7.454 14.737-17.667 14.737H187.5V134.8h-11.387v-20.457h12.92v-.13h3.867c4.05 0 6.515-2.104 6.515-5.438 0-3.509-2.465-5.38-6.574-5.38h-3.809v-.24h-12.919zm49.6-.292h10.976l17.491 41.23h-12.208l-2.994-7.311H223.13l-2.935 7.31h-11.974zm9.978 25.089l-4.578-11.639-4.637 11.639zm18.729-4.329c0-11.93 9.215-21.287 21.658-21.287 8.393 0 13.617 3.627 17.256 8.656l-8.335 6.433c-2.347-2.924-5.106-4.738-9.038-4.738-5.753 0-9.803 4.855-9.803 10.936 0 6.142 4.05 10.937 9.803 10.937 4.284 0 6.808-1.989 9.273-4.97l8.57 6.081c-3.874 5.321-9.098 9.24-18.196 9.24-11.739 0-21.188-8.948-21.188-21.288zm44.26-20.468h36.8V134.8h-11.386v-30.996h-14.028V134.8h-11.387zm44.083 0h17.608c10.39 0 17.08 5.322 17.08 14.504 0 9.65-7.454 14.737-17.667 14.737h-5.634V134.8h-11.387v-20.457h12.863v-.13h3.923c4.05 0 6.516-2.104 6.516-5.438 0-3.509-2.466-5.38-6.574-5.38h-3.865v-.24h-12.863zm38.096 20.468c0-11.754 9.508-21.287 22.186-21.287s22.07 9.416 22.07 21.287c0 11.755-9.509 21.288-22.187 21.288s-22.07-9.416-22.07-21.288zm32.634 0c0-5.906-4.285-11.053-10.565-11.053-6.222 0-10.389 5.03-10.389 11.053 0 5.907 4.285 11.054 10.506 11.054 6.28 0 10.448-5.03 10.448-11.054zm13.329 10.527h3.639c2.758-7.427 4.167-14.561 4.167-29.942v-1.053h31.284v30.995h4.637l-1.291 18.13h-9.626V134.8h-21.834l-.763 8.186H426.82zm27.704 0v-21.053h-8.922v.409c0 9.065-1.35 15.03-3.228 20.644zm34.75-31.287h10.976l17.491 41.23h-12.208l-2.993-7.311h-15.848l-2.935 7.31h-11.973zm9.979 25.089l-4.579-11.639-4.636 11.639zm33.636-7.545l-14.615-17.252H531.6l12.971 16.609V93.86h11.387v16.61l12.972-16.61h13.323l-14.615 17.253 15.144 23.686h-13.5l-9.391-15.44-3.933 4.562v10.877H544.57v-10.877l-3.932-4.562-9.391 15.44h-13.5zm53.183-17.252h11.27v23.041l15.906-23.041h10.624V134.8h-11.27v-23.043L596.697 134.8h-10.624z" mask="url(&quot;#6a8kb&quot;)"/><path fill-opacity=".2" d="M11.988 23.677H24.02l9.802 15.848 9.802-15.848h12.033v40.937H44.329v-23.51L33.822 57.13h-.234L23.14 41.222v23.392H11.988zm65.156-.292H88.12l17.49 41.23H93.403l-2.993-7.311H74.56l-2.934 7.31H59.653zm9.978 25.088l-4.578-11.637-4.637 11.637zm18.728-4.328c0-11.93 9.215-21.286 21.658-21.286 8.394 0 13.618 3.626 17.257 8.655l-8.335 6.432c-2.348-2.923-5.106-4.736-9.039-4.736-5.752 0-9.802 4.853-9.802 10.935 0 6.141 4.05 10.937 9.802 10.937 4.285 0 6.809-1.988 9.274-4.97l8.57 6.08c-3.875 5.322-9.098 9.241-18.196 9.241-11.739 0-21.189-8.948-21.189-21.288zm44.26-20.468h11.387v30.996h11.68V23.677h11.387v30.996h11.68V23.677h11.387v40.937H150.11zm74.841 9.942h-12.326v-9.942h36.039v9.942h-12.326v30.995h-11.387zm37.626-10.234h10.976l17.491 41.23h-12.208l-2.994-7.311h-15.847l-2.935 7.31h-11.974zm9.978 25.088l-4.578-11.637-4.637 11.637zm22.485-24.796h33.045v9.65h-21.658v4.736h7.924c9.508 0 16.493 4.328 16.493 13.159 0 8.48-6.222 13.392-15.907 13.392H295.04V55h11.387v.083h7.63c3.404 0 5.4-1.52 5.4-4.328 0-2.515-1.996-4.152-5.341-4.152l-4.244-.112v-.092H295.04zm41.09 0h11.387V39h14.615V23.677h11.387v40.937h-11.387V49.058h-14.615v15.556H336.13zm43.262 20.468c0-11.754 9.508-21.286 22.186-21.286s22.07 9.415 22.07 21.286c0 11.755-9.51 21.288-22.187 21.288-12.678 0-22.07-9.416-22.07-21.288zm32.634 0c0-5.906-4.285-11.052-10.565-11.052-6.222 0-10.39 5.029-10.39 11.052 0 5.907 4.286 11.054 10.507 11.054 6.28 0 10.448-5.03 10.448-11.054zm17.554-20.468h11.27V46.72l15.906-23.042h10.623v40.937h-11.27V41.572l-15.905 23.042H429.58zm8.922-11.579l6.221-1.112c.763 2.106 1.937 3.51 4.109 3.51 2.23 0 3.404-1.404 4.167-3.51l6.222 1.112c-.88 5.673-4.696 8.947-10.39 8.947-5.634 0-9.449-3.274-10.33-8.947zm51.01 32.047c0-11.754 9.509-21.286 22.187-21.286s22.069 9.415 22.069 21.286c0 11.755-9.509 21.288-22.187 21.288s-22.069-9.416-22.069-21.288zm32.634 0c0-5.906-4.284-11.052-10.565-11.052-6.221 0-10.388 5.029-10.388 11.052 0 5.907 4.284 11.054 10.506 11.054 6.28 0 10.447-5.03 10.447-11.054zm16.146 0c0-11.93 9.215-21.286 21.658-21.286 8.393 0 13.617 3.626 17.256 8.655l-8.334 6.432c-2.348-2.923-5.107-4.736-9.04-4.736-5.751 0-9.801 4.853-9.801 10.935 0 6.141 4.05 10.937 9.802 10.937 4.285 0 6.808-1.988 9.274-4.97l8.569 6.08c-3.874 5.322-9.098 9.241-18.195 9.241-11.74 0-21.189-8.948-21.189-21.288zm44.26-20.468h33.045v9.65H593.82v6.198h19.721v8.948h-19.721v6.491h22.07v9.65h-33.34zm39.152 0h11.387V39h14.615V23.677h11.387v40.937h-11.387V49.058h-14.615v15.556h-11.387zm44.67 0h11.387V39h14.615V23.677h11.387v40.937h-11.387V49.058h-14.615v15.556h-11.386zm44.67 0h33.046v9.65h-21.776v6.198h19.722v8.948h-19.722v6.491h22.07v9.65h-33.34zm39.154 0h11.269V46.72l15.906-23.042h10.624v40.937h-11.27V41.572l-15.906 23.042h-10.623zm8.921-11.579l6.222-1.112c.763 2.106 1.937 3.51 4.108 3.51 2.23 0 3.405-1.404 4.168-3.51l6.221 1.112c-.88 5.673-4.695 8.947-10.389 8.947-5.634 0-9.45-3.274-10.33-8.947zM176.112 93.862h17.608c10.39 0 17.08 5.322 17.08 14.504 0 9.65-7.454 14.737-17.667 14.737H187.5V134.8h-11.387v-20.457h12.92v-.13h3.867c4.05 0 6.515-2.104 6.515-5.438 0-3.509-2.465-5.38-6.574-5.38h-3.809v-.24h-12.919zm49.6-.292h10.976l17.491 41.23h-12.208l-2.994-7.311H223.13l-2.935 7.31h-11.974zm9.978 25.089l-4.578-11.639-4.637 11.639zm18.729-4.329c0-11.93 9.215-21.287 21.658-21.287 8.393 0 13.617 3.627 17.256 8.656l-8.335 6.433c-2.347-2.924-5.106-4.738-9.038-4.738-5.753 0-9.803 4.855-9.803 10.936 0 6.142 4.05 10.937 9.803 10.937 4.284 0 6.808-1.989 9.273-4.97l8.57 6.081c-3.874 5.321-9.098 9.24-18.196 9.24-11.739 0-21.188-8.948-21.188-21.288zm44.26-20.468h36.8V134.8h-11.386v-30.996h-14.028V134.8h-11.387zm44.083 0h17.608c10.39 0 17.08 5.322 17.08 14.504 0 9.65-7.454 14.737-17.667 14.737h-5.634V134.8h-11.387v-20.457h12.863v-.13h3.923c4.05 0 6.516-2.104 6.516-5.438 0-3.509-2.466-5.38-6.574-5.38h-3.865v-.24h-12.863zm38.096 20.468c0-11.754 9.508-21.287 22.186-21.287s22.07 9.416 22.07 21.287c0 11.755-9.509 21.288-22.187 21.288s-22.07-9.416-22.07-21.288zm32.634 0c0-5.906-4.285-11.053-10.565-11.053-6.222 0-10.389 5.03-10.389 11.053 0 5.907 4.285 11.054 10.506 11.054 6.28 0 10.448-5.03 10.448-11.054zm13.329 10.527h3.639c2.758-7.427 4.167-14.561 4.167-29.942v-1.053h31.284v30.995h4.637l-1.291 18.13h-9.626V134.8h-21.834l-.763 8.186H426.82zm27.704 0v-21.053h-8.922v.409c0 9.065-1.35 15.03-3.228 20.644zm34.75-31.287h10.976l17.491 41.23h-12.208l-2.993-7.311h-15.848l-2.935 7.31h-11.973zm9.979 25.089l-4.579-11.639-4.636 11.639zm33.636-7.545l-14.615-17.252H531.6l12.971 16.609V93.86h11.387v16.61l12.972-16.61h13.323l-14.615 17.253 15.144 23.686h-13.5l-9.391-15.44-3.933 4.562v10.877H544.57v-10.877l-3.932-4.562-9.391 15.44h-13.5zm53.183-17.252h11.27v23.041l15.906-23.041h10.624V134.8h-11.27v-23.043L596.697 134.8h-10.624z"/></g><path fill="#fff" d="M11.988 23.677H24.02l9.802 15.848 9.802-15.848h12.033v40.937H44.329v-23.51L33.822 57.13h-.234L23.14 41.222v23.392H11.988zm65.156-.292H88.12l17.49 41.23H93.403l-2.993-7.311H74.56l-2.934 7.31H59.653zm9.978 25.088l-4.578-11.637-4.637 11.637zm18.728-4.328c0-11.93 9.215-21.286 21.658-21.286 8.394 0 13.618 3.626 17.257 8.655l-8.335 6.432c-2.348-2.923-5.106-4.736-9.039-4.736-5.752 0-9.802 4.853-9.802 10.935 0 6.141 4.05 10.937 9.802 10.937 4.285 0 6.809-1.988 9.274-4.97l8.57 6.08c-3.875 5.322-9.098 9.241-18.196 9.241-11.739 0-21.189-8.948-21.189-21.288zm44.26-20.468h11.387v30.996h11.68V23.677h11.387v30.996h11.68V23.677h11.387v40.937H150.11zm74.841 9.942h-12.326v-9.942h36.039v9.942h-12.326v30.995h-11.387zm37.626-10.234h10.976l17.491 41.23h-12.208l-2.994-7.311h-15.847l-2.935 7.31h-11.974zm9.978 25.088l-4.578-11.637-4.637 11.637zm22.485-24.796h33.045v9.65h-21.658v4.736h7.924c9.508 0 16.493 4.328 16.493 13.159 0 8.48-6.222 13.392-15.907 13.392H295.04V55h11.387v.083h7.63c3.404 0 5.4-1.52 5.4-4.328 0-2.515-1.996-4.152-5.341-4.152l-4.244-.112v-.092H295.04zm41.09 0h11.387V39h14.615V23.677h11.387v40.937h-11.387V49.058h-14.615v15.556H336.13zm43.262 20.468c0-11.754 9.508-21.286 22.186-21.286s22.07 9.415 22.07 21.286c0 11.755-9.51 21.288-22.187 21.288-12.678 0-22.07-9.416-22.07-21.288zm32.634 0c0-5.906-4.285-11.052-10.565-11.052-6.222 0-10.39 5.029-10.39 11.052 0 5.907 4.286 11.054 10.507 11.054 6.28 0 10.448-5.03 10.448-11.054zm17.554-20.468h11.27V46.72l15.906-23.042h10.623v40.937h-11.27V41.572l-15.905 23.042H429.58zm8.922-11.579l6.221-1.112c.763 2.106 1.937 3.51 4.109 3.51 2.23 0 3.404-1.404 4.167-3.51l6.222 1.112c-.88 5.673-4.696 8.947-10.39 8.947-5.634 0-9.449-3.274-10.33-8.947zm51.01 32.047c0-11.754 9.509-21.286 22.187-21.286s22.069 9.415 22.069 21.286c0 11.755-9.509 21.288-22.187 21.288s-22.069-9.416-22.069-21.288zm32.634 0c0-5.906-4.284-11.052-10.565-11.052-6.221 0-10.388 5.029-10.388 11.052 0 5.907 4.284 11.054 10.506 11.054 6.28 0 10.447-5.03 10.447-11.054zm16.146 0c0-11.93 9.215-21.286 21.658-21.286 8.393 0 13.617 3.626 17.256 8.655l-8.334 6.432c-2.348-2.923-5.107-4.736-9.04-4.736-5.751 0-9.801 4.853-9.801 10.935 0 6.141 4.05 10.937 9.802 10.937 4.285 0 6.808-1.988 9.274-4.97l8.569 6.08c-3.874 5.322-9.098 9.241-18.195 9.241-11.74 0-21.189-8.948-21.189-21.288zm44.26-20.468h33.045v9.65H593.82v6.198h19.721v8.948h-19.721v6.491h22.07v9.65h-33.34zm39.152 0h11.387V39h14.615V23.677h11.387v40.937h-11.387V49.058h-14.615v15.556h-11.387zm44.67 0h11.387V39h14.615V23.677h11.387v40.937h-11.387V49.058h-14.615v15.556h-11.386zm44.67 0h33.046v9.65h-21.776v6.198h19.722v8.948h-19.722v6.491h22.07v9.65h-33.34zm39.154 0h11.269V46.72l15.906-23.042h10.624v40.937h-11.27V41.572l-15.906 23.042h-10.623zm8.921-11.579l6.222-1.112c.763 2.106 1.937 3.51 4.108 3.51 2.23 0 3.405-1.404 4.168-3.51l6.221 1.112c-.88 5.673-4.695 8.947-10.389 8.947-5.634 0-9.45-3.274-10.33-8.947zM176.112 93.862h17.608c10.39 0 17.08 5.322 17.08 14.504 0 9.65-7.454 14.737-17.667 14.737H187.5V134.8h-11.387v-20.457h12.92v-.13h3.867c4.05 0 6.515-2.104 6.515-5.438 0-3.509-2.465-5.38-6.574-5.38h-3.809v-.24h-12.919zm49.6-.292h10.976l17.491 41.23h-12.208l-2.994-7.311H223.13l-2.935 7.31h-11.974zm9.978 25.089l-4.578-11.639-4.637 11.639zm18.729-4.329c0-11.93 9.215-21.287 21.658-21.287 8.393 0 13.617 3.627 17.256 8.656l-8.335 6.433c-2.347-2.924-5.106-4.738-9.038-4.738-5.753 0-9.803 4.855-9.803 10.936 0 6.142 4.05 10.937 9.803 10.937 4.284 0 6.808-1.989 9.273-4.97l8.57 6.081c-3.874 5.321-9.098 9.24-18.196 9.24-11.739 0-21.188-8.948-21.188-21.288zm44.26-20.468h36.8V134.8h-11.386v-30.996h-14.028V134.8h-11.387zm44.083 0h17.608c10.39 0 17.08 5.322 17.08 14.504 0 9.65-7.454 14.737-17.667 14.737h-5.634V134.8h-11.387v-20.457h12.863v-.13h3.923c4.05 0 6.516-2.104 6.516-5.438 0-3.509-2.466-5.38-6.574-5.38h-3.865v-.24h-12.863zm38.096 20.468c0-11.754 9.508-21.287 22.186-21.287s22.07 9.416 22.07 21.287c0 11.755-9.509 21.288-22.187 21.288s-22.07-9.416-22.07-21.288zm32.634 0c0-5.906-4.285-11.053-10.565-11.053-6.222 0-10.389 5.03-10.389 11.053 0 5.907 4.285 11.054 10.506 11.054 6.28 0 10.448-5.03 10.448-11.054zm13.329 10.527h3.639c2.758-7.427 4.167-14.561 4.167-29.942v-1.053h31.284v30.995h4.637l-1.291 18.13h-9.626V134.8h-21.834l-.763 8.186H426.82zm27.704 0v-21.053h-8.922v.409c0 9.065-1.35 15.03-3.228 20.644zm34.75-31.287h10.976l17.491 41.23h-12.208l-2.993-7.311h-15.848l-2.935 7.31h-11.973zm9.979 25.089l-4.579-11.639-4.636 11.639zm33.636-7.545l-14.615-17.252H531.6l12.971 16.609V93.86h11.387v16.61l12.972-16.61h13.323l-14.615 17.253 15.144 23.686h-13.5l-9.391-15.44-3.933 4.562v10.877H544.57v-10.877l-3.932-4.562-9.391 15.44h-13.5zm53.183-17.252h11.27v23.041l15.906-23.041h10.624V134.8h-11.27v-23.043L596.697 134.8h-10.624z"/></g></g></svg>