<svg xmlns="http://www.w3.org/2000/svg" width="1089" height="443" viewBox="0 0 1089 443"><g><g><g><path fill="#f21c11" d="M738.482 413.234L112 218 948 57z"/></g><g><path fill="#d60505" d="M330.003 244.997l-77-18.137 67.525-26.861z"/></g><g><path fill="#43a8f6" d="M302.989 191.17l-91.023 31.836-60.96-98.01z"/></g><g><path fill="#46b624" d="M944.857 282.21l19.694 28.937-28.567 30.569z"/></g><g><path fill="#46b624" d="M241.487 326.755l-6.166 34.413-41.922.947z"/></g><g><path fill="#46b624" d="M105.762 163.5l-6.951 13.11-17.58-5.116z"/></g><g><path fill="#46b624" d="M753.762 50.5l-6.951 13.11-17.58-5.115z"/></g><g><path fill="#46b624" d="M603.762 377.5l-6.951 13.11-17.58-5.115z"/></g><g><path fill="#46b624" d="M1088.762 256.5l-6.951 13.11-17.58-5.115z"/></g><g><path fill="#46b624" d="M960.762 98.5l-6.951 13.11-17.58-5.115z"/></g><g><path fill="#37bb0f" d="M496.506 54.085l47.355 80.205-88.41 81.605z"/></g><g><path fill="#d60505" d="M712.81 103.272l-64.816 80.964 7.794-120.062z"/></g><g><path fill="#43a8f6" d="M301 370.393l-19.002 23.602 2.285-35z"/></g><g><path fill="#43a8f6" d="M165.256 442.726l-14.568-7.207 18.851-2.659z"/></g><g><path fill="#43a8f6" d="M184.256 297.726l-14.568-7.207 18.851-2.658z"/></g><g><path fill="#43a8f6" d="M864.256 368.726l-14.568-7.207 18.851-2.66z"/></g><g><path fill="#43a8f6" d="M807.256 420.726l-14.568-7.207 18.851-2.659z"/></g><g><path fill="#43a8f6" d="M1065.256 148.726l-14.568-7.207 18.85-2.66z"/></g><g><path fill="#43a8f6" d="M1032.256 36.726l-14.568-7.206 18.851-2.66z"/></g><g><path fill="#43a8f6" d="M394.256 73.726l-14.568-7.207 18.851-2.66z"/></g><g><path fill="#43a8f6" d="M877.256 240.726l-14.568-7.206 18.851-2.66z"/></g><g><path fill="#43a8f6" d="M14.256 160.726L-.312 153.52l18.85-2.66z"/></g><g><path fill="#43a8f6" d="M249.256 112.726l-14.568-7.207 18.85-2.659z"/></g><g><path fill="#43a8f6" d="M905.981 441.782l-10.796-28.312 29.069 19.626z"/></g><g><path fill="#43a8f6" d="M375.981 174.781l-10.796-28.31 29.069 19.625z"/></g><g><path fill="#43a8f6" d="M282.981 298.782l-10.796-28.312 29.069 19.627z"/></g><g><path fill="#43a8f6" d="M797.981 131.782l-10.796-28.312 29.069 19.626z"/></g><g><path fill="#43a8f6" d="M572.981 64.781L562.185 36.47l29.069 19.627z"/></g><g><path fill="#d60505" d="M975.995 134.975l-44.158 110.037-144.847-62.196z"/></g><g><path fill="#d60505" d="M336.548 301.664l32.14-19.88 26.113 43.532z"/></g><g><path fill="#d60505" d="M419.994 376.678l14.346-8.677 11.655 19z"/></g><g><path fill="#d60505" d="M1056.994 395.678L1071.34 387l11.655 19.001z"/></g><g><path fill="#d60505" d="M217.994 271.678l14.345-8.677 11.656 19z"/></g><g><path fill="#d60505" d="M607.994 72.678L622.339 64l11.656 19.001z"/></g><g><path fill="#37bb0f" d="M868.994 259.678L883.34 251l11.655 19z"/></g><g><path fill="#d60505" d="M832.994 8.678L847.339 0l11.656 19.001z"/></g><g><path fill="#e0241b" d="M293.994 25.677L308.339 17l11.656 19.001z"/></g><g><path fill="#37bb0f" d="M769.992 345.42l18.76-11.42 15.241 25.002z"/></g><g><path fill="#e0241b" d="M319.992 137.418l18.76-11.417 15.241 25z"/></g><g><path fill="#43a8f6" d="M894.007 300.751l-88.567 25.247-53.454-98.01z"/></g></g></g></svg>