<svg xmlns="http://www.w3.org/2000/svg" width="130" height="130" viewBox="0 0 130 130"><defs><clipPath id="922pa"><path fill="#fff" d="M65 0c35.898 0 65 29.101 65 65 0 35.898-29.102 65-65 65C29.1 130 0 100.897 0 65 0 29.1 29.1 0 65 0z"/></clipPath><clipPath id="922pb"><path d="M65 0c35.898 0 65 29.101 65 65 0 35.898-29.102 65-65 65C29.1 130 0 100.897 0 65 0 29.1 29.1 0 65 0z"/></clipPath></defs><g><g><path fill="none" stroke="#e8e8e8" stroke-miterlimit="50" stroke-width="12" d="M65 0c35.898 0 65 29.101 65 65 0 35.898-29.102 65-65 65C29.1 130 0 100.897 0 65 0 29.1 29.1 0 65 0z" clip-path="url(&quot;#922pa&quot;)"/></g><g clip-path="url(#922pb)"><path fill="#43a8f6" d="M64-33.001l85 75-37 101-48-60z"/></g></g></svg>